<svg class="vab m1NoDisplay" viewBox="1 0 19 19" stroke="red" stroke-linecap="round" stroke-linejoin="round" fill="none" width="19" height="19">
    <path d="M7.5 5.5V4.4706c0-0.546 0-1.0919 0.4393-1.5313C8.3787 2.5 8.9246 2.5 9.4706 2.5h6.0588c0.546 0 1.0919 0 1.5313 0.4393C17.5 3.3787 17.5 3.9246 17.5 4.4706v10.0588c0 0.546 0 1.0919-0.4393 1.5313C16.6213 16.5 16.0754 16.5 15.5294 16.5H9.4706c-0.546 0-1.0919 0-1.5313-0.4393C7.5 15.6213 7.5 15.0754 7.5 14.5294V13.5"></path>
    <path d="M10.5 12.5l3-3-3-3M1.5 9.5H13"></path>
</svg>
